<?xml version="1.0" encoding="UTF-8" standalone="no"?>
<!DOCTYPE svg PUBLIC "-//W3C//DTD SVG 1.1//EN"
 "http://www.w3.org/Graphics/SVG/1.1/DTD/svg11.dtd">
<!-- Generated by graphviz version 2.43.0 (0)
 -->
<!-- Title: G Pages: 1 -->
<svg width="1342pt" height="3112pt"
 viewBox="0.00 0.00 483.20 1120.20" xmlns="http://www.w3.org/2000/svg" xmlns:xlink="http://www.w3.org/1999/xlink">
<g id="graph0" class="graph" transform="scale(2.78 2.78) rotate(0) translate(21.6 1098.6)">
<title>G</title>
<polygon fill="white" stroke="transparent" points="-21.6,21.6 -21.6,-1098.6 461.6,-1098.6 461.6,21.6 -21.6,21.6"/>
<g id="clust1" class="cluster">
<title>cluster_v</title>
<path fill="#e8f1fb" stroke="#8fb3d9" d="M110,-580C110,-580 362,-580 362,-580 368,-580 374,-586 374,-592 374,-592 374,-1057 374,-1057 374,-1063 368,-1069 362,-1069 362,-1069 110,-1069 110,-1069 104,-1069 98,-1063 98,-1057 98,-1057 98,-592 98,-592 98,-586 104,-580 110,-580"/>
<text text-anchor="middle" x="236" y="-1054.6" font-family="Helvetica,sans-Serif" font-size="13.00">VENDOR (trusted build &amp; release zone)</text>
</g>
<g id="clust2" class="cluster">
<title>cluster_d</title>
<path fill="#f1f3f5" stroke="#b8c0c8" d="M119,-422C119,-422 287,-422 287,-422 293,-422 299,-428 299,-434 299,-434 299,-551 299,-551 299,-557 293,-563 287,-563 287,-563 119,-563 119,-563 113,-563 107,-557 107,-551 107,-551 107,-434 107,-434 107,-428 113,-422 119,-422"/>
<text text-anchor="middle" x="203" y="-548.6" font-family="Helvetica,sans-Serif" font-size="13.00">DISTRIBUTION (untrusted)</text>
</g>
<g id="clust3" class="cluster">
<title>cluster_c</title>
<path fill="#e8f6ee" stroke="#94c9a9" d="M20,-60C20,-60 310,-60 310,-60 316,-60 322,-66 322,-72 322,-72 322,-393 322,-393 322,-399 316,-405 310,-405 310,-405 20,-405 20,-405 14,-405 8,-399 8,-393 8,-393 8,-72 8,-72 8,-66 14,-60 20,-60"/>
<text text-anchor="middle" x="165" y="-390.6" font-family="Helvetica,sans-Serif" font-size="13.00">CUSTOMER CI/CD (verification zone)</text>
</g>
<!-- dev -->
<g id="node1" class="node">
<title>dev</title>
<path fill="#ffffff" stroke="#51606f" stroke-width="1.2" d="M308,-1039C308,-1039 218,-1039 218,-1039 212,-1039 206,-1033 206,-1027 206,-1027 206,-1015 206,-1015 206,-1009 212,-1003 218,-1003 218,-1003 308,-1003 308,-1003 314,-1003 320,-1009 320,-1015 320,-1015 320,-1027 320,-1027 320,-1033 314,-1039 308,-1039"/>
<text text-anchor="middle" x="263" y="-1024.4" font-family="Helvetica,sans-Serif" font-size="12.00">Developer</text>
<text text-anchor="middle" x="263" y="-1011.4" font-family="Helvetica,sans-Serif" font-size="12.00">(commit, MFA)</text>
</g>
<!-- repo -->
<g id="node2" class="node">
<title>repo</title>
<path fill="#ffffff" stroke="#51606f" stroke-width="1.2" d="M320.5,-972C320.5,-972 205.5,-972 205.5,-972 199.5,-972 193.5,-966 193.5,-960 193.5,-960 193.5,-948 193.5,-948 193.5,-942 199.5,-936 205.5,-936 205.5,-936 320.5,-936 320.5,-936 326.5,-936 332.5,-942 332.5,-948 332.5,-948 332.5,-960 332.5,-960 332.5,-966 326.5,-972 320.5,-972"/>
<text text-anchor="middle" x="263" y="-957.4" font-family="Helvetica,sans-Serif" font-size="12.00">Source Repository</text>
<text text-anchor="middle" x="263" y="-944.4" font-family="Helvetica,sans-Serif" font-size="12.00">(protected branch)</text>
</g>
<!-- dev&#45;&gt;repo -->
<g id="edge1" class="edge">
<title>dev&#45;&gt;repo</title>
<path fill="none" stroke="#51606f" stroke-width="1.2" d="M263,-1002.92C263,-995.81 263,-987.42 263,-979.66"/>
<polygon fill="#51606f" stroke="#51606f" stroke-width="1.2" points="265.45,-979.19 263,-972.19 260.55,-979.19 265.45,-979.19"/>
</g>
<!-- build -->
<g id="node3" class="node">
<title>build</title>
<path fill="#ffffff" stroke="#51606f" stroke-width="1.2" d="M320,-905C320,-905 206,-905 206,-905 200,-905 194,-899 194,-893 194,-893 194,-881 194,-881 194,-875 200,-869 206,-869 206,-869 320,-869 320,-869 326,-869 332,-875 332,-881 332,-881 332,-893 332,-893 332,-899 326,-905 320,-905"/>
<text text-anchor="middle" x="263" y="-890.4" font-family="Helvetica,sans-Serif" font-size="12.00">Secure CI/CD Build</text>
<text text-anchor="middle" x="263" y="-877.4" font-family="Helvetica,sans-Serif" font-size="12.00">(isolated builder)</text>
</g>
<!-- repo&#45;&gt;build -->
<g id="edge2" class="edge">
<title>repo&#45;&gt;build</title>
<path fill="none" stroke="#51606f" stroke-width="1.2" d="M263,-935.92C263,-928.81 263,-920.42 263,-912.66"/>
<polygon fill="#51606f" stroke="#51606f" stroke-width="1.2" points="265.45,-912.19 263,-905.19 260.55,-912.19 265.45,-912.19"/>
</g>
<!-- tests -->
<g id="node4" class="node">
<title>tests</title>
<path fill="#ffffff" stroke="#51606f" stroke-width="1.2" d="M317.5,-838C317.5,-838 208.5,-838 208.5,-838 202.5,-838 196.5,-832 196.5,-826 196.5,-826 196.5,-814 196.5,-814 196.5,-808 202.5,-802 208.5,-802 208.5,-802 317.5,-802 317.5,-802 323.5,-802 329.5,-808 329.5,-814 329.5,-814 329.5,-826 329.5,-826 329.5,-832 323.5,-838 317.5,-838"/>
<text text-anchor="middle" x="263" y="-823.4" font-family="Helvetica,sans-Serif" font-size="12.00">Security Testing</text>
<text text-anchor="middle" x="263" y="-810.4" font-family="Helvetica,sans-Serif" font-size="12.00">(exfiltration rules)</text>
</g>
<!-- build&#45;&gt;tests -->
<g id="edge3" class="edge">
<title>build&#45;&gt;tests</title>
<path fill="none" stroke="#51606f" stroke-width="1.2" d="M263,-868.92C263,-861.81 263,-853.42 263,-845.66"/>
<polygon fill="#51606f" stroke="#51606f" stroke-width="1.2" points="265.45,-845.19 263,-838.19 260.55,-845.19 265.45,-845.19"/>
</g>
<!-- hash -->
<g id="node5" class="node">
<title>hash</title>
<path fill="#ffffff" stroke="#51606f" stroke-width="1.2" d="M339.5,-771C339.5,-771 186.5,-771 186.5,-771 180.5,-771 174.5,-765 174.5,-759 174.5,-759 174.5,-747 174.5,-747 174.5,-741 180.5,-735 186.5,-735 186.5,-735 339.5,-735 339.5,-735 345.5,-735 351.5,-741 351.5,-747 351.5,-747 351.5,-759 351.5,-759 351.5,-765 345.5,-771 339.5,-771"/>
<text text-anchor="middle" x="263" y="-756.4" font-family="Helvetica,sans-Serif" font-size="12.00">SHA&#45;256</text>
<text text-anchor="middle" x="263" y="-743.4" font-family="Helvetica,sans-Serif" font-size="12.00">fingerprint + provenance</text>
</g>
<!-- tests&#45;&gt;hash -->
<g id="edge4" class="edge">
<title>tests&#45;&gt;hash</title>
<path fill="none" stroke="#51606f" stroke-width="1.2" d="M263,-801.92C263,-794.81 263,-786.42 263,-778.66"/>
<polygon fill="#51606f" stroke="#51606f" stroke-width="1.2" points="265.45,-778.19 263,-771.19 260.55,-778.19 265.45,-778.19"/>
</g>
<!-- signer -->
<g id="node6" class="node">
<title>signer</title>
<path fill="#d6e6f7" stroke="#51606f" stroke-width="1.2" d="M336.5,-704C336.5,-704 189.5,-704 189.5,-704 183.5,-704 177.5,-698 177.5,-692 177.5,-692 177.5,-667 177.5,-667 177.5,-661 183.5,-655 189.5,-655 189.5,-655 336.5,-655 336.5,-655 342.5,-655 348.5,-661 348.5,-667 348.5,-667 348.5,-692 348.5,-692 348.5,-698 342.5,-704 336.5,-704"/>
<text text-anchor="middle" x="263" y="-689.4" font-family="Helvetica,sans-Serif" font-size="12.00">Signing Service</text>
<text text-anchor="middle" x="263" y="-676.4" font-family="Helvetica,sans-Serif" font-size="12.00">HSM / KMS concept</text>
<text text-anchor="middle" x="263" y="-663.4" font-family="Helvetica,sans-Serif" font-size="12.00">(RBAC + MFA, Ed25519)</text>
</g>
<!-- hash&#45;&gt;signer -->
<g id="edge5" class="edge">
<title>hash&#45;&gt;signer</title>
<path fill="none" stroke="#51606f" stroke-width="1.2" d="M263,-734.69C263,-727.67 263,-719.33 263,-711.34"/>
<polygon fill="#51606f" stroke="#51606f" stroke-width="1.2" points="265.45,-711.13 263,-704.13 260.55,-711.13 265.45,-711.13"/>
</g>
<!-- man -->
<g id="node7" class="node">
<title>man</title>
<path fill="#ffffff" stroke="#51606f" stroke-width="1.2" d="M300.5,-624C300.5,-624 141.5,-624 141.5,-624 135.5,-624 129.5,-618 129.5,-612 129.5,-612 129.5,-600 129.5,-600 129.5,-594 135.5,-588 141.5,-588 141.5,-588 300.5,-588 300.5,-588 306.5,-588 312.5,-594 312.5,-600 312.5,-600 312.5,-612 312.5,-612 312.5,-618 306.5,-624 300.5,-624"/>
<text text-anchor="middle" x="221" y="-609.4" font-family="Helvetica,sans-Serif" font-size="12.00">Signed Manifest + Artifact</text>
<text text-anchor="middle" x="221" y="-596.4" font-family="Helvetica,sans-Serif" font-size="12.00">(+ detached signature)</text>
</g>
<!-- signer&#45;&gt;man -->
<g id="edge6" class="edge">
<title>signer&#45;&gt;man</title>
<path fill="none" stroke="#51606f" stroke-width="1.2" d="M249.01,-654.69C244.47,-646.95 239.42,-638.36 234.88,-630.63"/>
<polygon fill="#51606f" stroke="#51606f" stroke-width="1.2" points="236.86,-629.17 231.21,-624.37 232.64,-631.65 236.86,-629.17"/>
</g>
<!-- audit -->
<g id="node15" class="node">
<title>audit</title>
<path fill="#fff6e0" stroke="#b7791f" stroke-width="1.2" d="M368.5,-36C368.5,-36 133.5,-36 133.5,-36 127.5,-36 121.5,-30 121.5,-24 121.5,-24 121.5,-12 121.5,-12 121.5,-6 127.5,0 133.5,0 133.5,0 368.5,0 368.5,0 374.5,0 380.5,-6 380.5,-12 380.5,-12 380.5,-24 380.5,-24 380.5,-30 374.5,-36 368.5,-36"/>
<text text-anchor="middle" x="251" y="-14.9" font-family="Helvetica,sans-Serif" font-size="12.00">Hash&#45;chained Audit / Transparency Log</text>
</g>
<!-- signer&#45;&gt;audit -->
<g id="edge16" class="edge">
<title>signer&#45;&gt;audit</title>
<path fill="none" stroke="#51606f" stroke-width="1.2" stroke-dasharray="5,2" d="M322.05,-654.9C339.96,-643.63 355,-627.94 355,-607 355,-607 355,-607 355,-85 355,-63.96 339.64,-49.35 320.73,-39.32"/>
<polygon fill="#51606f" stroke="#51606f" stroke-width="1.2" points="321.56,-37 314.19,-36.1 319.39,-41.39 321.56,-37"/>
<text text-anchor="middle" x="397.5" y="-354.5" font-family="Helvetica,sans-Serif" font-size="10.00"> every signing op</text>
</g>
<!-- reg -->
<g id="node8" class="node">
<title>reg</title>
<path fill="#ffffff" stroke="#51606f" stroke-width="1.2" d="M279.5,-533C279.5,-533 126.5,-533 126.5,-533 120.5,-533 114.5,-527 114.5,-521 114.5,-521 114.5,-509 114.5,-509 114.5,-503 120.5,-497 126.5,-497 126.5,-497 279.5,-497 279.5,-497 285.5,-497 291.5,-503 291.5,-509 291.5,-509 291.5,-521 291.5,-521 291.5,-527 285.5,-533 279.5,-533"/>
<text text-anchor="middle" x="203" y="-518.4" font-family="Helvetica,sans-Serif" font-size="12.00">Artifact Registry</text>
<text text-anchor="middle" x="203" y="-505.4" font-family="Helvetica,sans-Serif" font-size="12.00">+ root&#45;signed trust policy</text>
</g>
<!-- man&#45;&gt;reg -->
<g id="edge11" class="edge">
<title>man&#45;&gt;reg</title>
<path fill="none" stroke="#51606f" stroke-width="1.2" d="M217.53,-587.84C214.79,-574.3 210.94,-555.24 207.88,-540.15"/>
<polygon fill="#51606f" stroke="#51606f" stroke-width="1.2" points="210.25,-539.48 206.46,-533.11 205.45,-540.45 210.25,-539.48"/>
</g>
<!-- tls -->
<g id="node9" class="node">
<title>tls</title>
<path fill="#ffffff" stroke="#51606f" stroke-width="1.2" stroke-dasharray="5,2" d="M238,-466C238,-466 140,-466 140,-466 134,-466 128,-460 128,-454 128,-454 128,-442 128,-442 128,-436 134,-430 140,-430 140,-430 238,-430 238,-430 244,-430 250,-436 250,-442 250,-442 250,-454 250,-454 250,-460 244,-466 238,-466"/>
<text text-anchor="middle" x="189" y="-444.9" font-family="Helvetica,sans-Serif" font-size="12.00">TLS 1.3 channel</text>
</g>
<!-- reg&#45;&gt;tls -->
<g id="edge12" class="edge">
<title>reg&#45;&gt;tls</title>
<path fill="none" stroke="#51606f" stroke-width="1.2" d="M199.32,-496.92C197.76,-489.66 195.91,-481.07 194.21,-473.18"/>
<polygon fill="#51606f" stroke="#51606f" stroke-width="1.2" points="196.57,-472.52 192.7,-466.19 191.78,-473.55 196.57,-472.52"/>
</g>
<!-- cci -->
<g id="node10" class="node">
<title>cci</title>
<path fill="#ffffff" stroke="#51606f" stroke-width="1.2" d="M253,-375C253,-375 109,-375 109,-375 103,-375 97,-369 97,-363 97,-363 97,-351 97,-351 97,-345 103,-339 109,-339 109,-339 253,-339 253,-339 259,-339 265,-345 265,-351 265,-351 265,-363 265,-363 265,-369 259,-375 253,-375"/>
<text text-anchor="middle" x="181" y="-360.4" font-family="Helvetica,sans-Serif" font-size="12.00">Customer CI/CD</text>
<text text-anchor="middle" x="181" y="-347.4" font-family="Helvetica,sans-Serif" font-size="12.00">(pinned root public key)</text>
</g>
<!-- tls&#45;&gt;cci -->
<g id="edge13" class="edge">
<title>tls&#45;&gt;cci</title>
<path fill="none" stroke="#51606f" stroke-width="1.2" d="M187.46,-429.84C186.24,-416.3 184.53,-397.24 183.17,-382.15"/>
<polygon fill="#51606f" stroke="#51606f" stroke-width="1.2" points="185.6,-381.86 182.54,-375.11 180.72,-382.3 185.6,-381.86"/>
</g>
<!-- eng -->
<g id="node11" class="node">
<title>eng</title>
<path fill="#ffffff" stroke="#51606f" stroke-width="1.2" d="M28.5,-212.5C28.5,-212.5 301.5,-212.5 301.5,-212.5 307.5,-212.5 313.5,-218.5 313.5,-224.5 313.5,-224.5 313.5,-295.5 313.5,-295.5 313.5,-301.5 307.5,-307.5 301.5,-307.5 301.5,-307.5 28.5,-307.5 28.5,-307.5 22.5,-307.5 16.5,-301.5 16.5,-295.5 16.5,-295.5 16.5,-224.5 16.5,-224.5 16.5,-218.5 22.5,-212.5 28.5,-212.5"/>
<text text-anchor="middle" x="165" y="-292.9" font-family="Helvetica,sans-Serif" font-size="12.00">Verification Engine</text>
<polyline fill="none" stroke="#51606f" stroke-width="1.2" points="16.5,-284.5 313.5,-284.5 "/>
<text text-anchor="middle" x="71" y="-269.9" font-family="Helvetica,sans-Serif" font-size="12.00">Signature</text>
<text text-anchor="middle" x="71" y="-256.9" font-family="Helvetica,sans-Serif" font-size="12.00">verification</text>
<polyline fill="none" stroke="#51606f" stroke-width="1.2" points="125.5,-248.5 125.5,-284.5 "/>
<text text-anchor="middle" x="180" y="-269.9" font-family="Helvetica,sans-Serif" font-size="12.00">SHA&#45;256</text>
<text text-anchor="middle" x="180" y="-256.9" font-family="Helvetica,sans-Serif" font-size="12.00">verification</text>
<polyline fill="none" stroke="#51606f" stroke-width="1.2" points="234.5,-248.5 234.5,-284.5 "/>
<text text-anchor="middle" x="274" y="-269.9" font-family="Helvetica,sans-Serif" font-size="12.00">Key</text>
<text text-anchor="middle" x="274" y="-256.9" font-family="Helvetica,sans-Serif" font-size="12.00">status</text>
<polyline fill="none" stroke="#51606f" stroke-width="1.2" points="16.5,-248.5 313.5,-248.5 "/>
<text text-anchor="middle" x="79.5" y="-233.9" font-family="Helvetica,sans-Serif" font-size="12.00">Artifact / version</text>
<text text-anchor="middle" x="79.5" y="-220.9" font-family="Helvetica,sans-Serif" font-size="12.00">status</text>
<polyline fill="none" stroke="#51606f" stroke-width="1.2" points="142.5,-212.5 142.5,-248.5 "/>
<text text-anchor="middle" x="190.5" y="-227.4" font-family="Helvetica,sans-Serif" font-size="12.00">Provenance</text>
<polyline fill="none" stroke="#51606f" stroke-width="1.2" points="238.5,-212.5 238.5,-248.5 "/>
<text text-anchor="middle" x="276" y="-233.9" font-family="Helvetica,sans-Serif" font-size="12.00">Security</text>
<text text-anchor="middle" x="276" y="-220.9" font-family="Helvetica,sans-Serif" font-size="12.00">policy</text>
</g>
<!-- cci&#45;&gt;eng -->
<g id="edge7" class="edge">
<title>cci&#45;&gt;eng</title>
<path fill="none" stroke="#51606f" stroke-width="1.2" d="M178.07,-338.58C176.9,-331.64 175.49,-323.26 174.03,-314.6"/>
<polygon fill="#51606f" stroke="#51606f" stroke-width="1.2" points="176.43,-314.12 172.85,-307.62 171.6,-314.93 176.43,-314.12"/>
</g>
<!-- gate -->
<g id="node12" class="node">
<title>gate</title>
<polygon fill="#ffffff" stroke="#51606f" stroke-width="1.2" points="165,-181 86.8,-163 165,-145 243.2,-163 165,-181"/>
<text text-anchor="middle" x="165" y="-159.9" font-family="Helvetica,sans-Serif" font-size="12.00">Security Gate</text>
</g>
<!-- eng&#45;&gt;gate -->
<g id="edge8" class="edge">
<title>eng&#45;&gt;gate</title>
<path fill="none" stroke="#51606f" stroke-width="1.2" d="M165,-212.33C165,-204.2 165,-196.04 165,-188.79"/>
<polygon fill="#51606f" stroke="#51606f" stroke-width="1.2" points="167.45,-188.34 165,-181.34 162.55,-188.34 167.45,-188.34"/>
</g>
<!-- dep -->
<g id="node13" class="node">
<title>dep</title>
<path fill="#d5f0de" stroke="#1a7f4b" stroke-width="1.2" d="M151.5,-104C151.5,-104 102.5,-104 102.5,-104 96.5,-104 90.5,-98 90.5,-92 90.5,-92 90.5,-80 90.5,-80 90.5,-74 96.5,-68 102.5,-68 102.5,-68 151.5,-68 151.5,-68 157.5,-68 163.5,-74 163.5,-80 163.5,-80 163.5,-92 163.5,-92 163.5,-98 157.5,-104 151.5,-104"/>
<text text-anchor="middle" x="127" y="-82.9" font-family="Helvetica,sans-Serif" font-size="12.00" fill="#1a7f4b">DEPLOY</text>
</g>
<!-- gate&#45;&gt;dep -->
<g id="edge9" class="edge">
<title>gate&#45;&gt;dep</title>
<path fill="none" stroke="#51606f" stroke-width="1.2" d="M150.85,-148.03C146.18,-142.76 141.33,-136.46 138,-130 135.06,-124.29 132.87,-117.74 131.25,-111.5"/>
<polygon fill="#51606f" stroke="#51606f" stroke-width="1.2" points="133.57,-110.65 129.6,-104.38 128.79,-111.76 133.57,-110.65"/>
<text text-anchor="middle" x="177" y="-122" font-family="Helvetica,sans-Serif" font-size="10.00" fill="#1a7f4b"> all checks pass</text>
</g>
<!-- blk -->
<g id="node14" class="node">
<title>blk</title>
<path fill="#fbd9d6" stroke="#b42318" stroke-width="1.2" d="M301.5,-104C301.5,-104 200.5,-104 200.5,-104 194.5,-104 188.5,-98 188.5,-92 188.5,-92 188.5,-80 188.5,-80 188.5,-74 194.5,-68 200.5,-68 200.5,-68 301.5,-68 301.5,-68 307.5,-68 313.5,-74 313.5,-80 313.5,-80 313.5,-92 313.5,-92 313.5,-98 307.5,-104 301.5,-104"/>
<text text-anchor="middle" x="251" y="-89.4" font-family="Helvetica,sans-Serif" font-size="12.00" fill="#b42318">BLOCK</text>
<text text-anchor="middle" x="251" y="-76.4" font-family="Helvetica,sans-Serif" font-size="12.00" fill="#b42318">+ security event</text>
</g>
<!-- gate&#45;&gt;blk -->
<g id="edge10" class="edge">
<title>gate&#45;&gt;blk</title>
<path fill="none" stroke="#51606f" stroke-width="1.2" d="M188.45,-150.34C198.16,-144.9 209.19,-137.88 218,-130 224.58,-124.12 230.76,-116.78 235.96,-109.84"/>
<polygon fill="#51606f" stroke="#51606f" stroke-width="1.2" points="237.96,-111.25 240.08,-104.14 233.99,-108.37 237.96,-111.25"/>
<text text-anchor="middle" x="256" y="-122" font-family="Helvetica,sans-Serif" font-size="10.00" fill="#b42318"> any failure</text>
</g>
<!-- dep&#45;&gt;audit -->
<g id="edge14" class="edge">
<title>dep&#45;&gt;audit</title>
<path fill="none" stroke="#51606f" stroke-width="1.2" d="M159.26,-67.83C175.47,-59.2 195.25,-48.67 212.28,-39.61"/>
<polygon fill="#51606f" stroke="#51606f" stroke-width="1.2" points="213.88,-41.53 218.91,-36.08 211.58,-37.21 213.88,-41.53"/>
</g>
<!-- blk&#45;&gt;audit -->
<g id="edge15" class="edge">
<title>blk&#45;&gt;audit</title>
<path fill="none" stroke="#51606f" stroke-width="1.2" d="M251,-67.66C251,-60.29 251,-51.57 251,-43.55"/>
<polygon fill="#51606f" stroke="#51606f" stroke-width="1.2" points="253.45,-43.45 251,-36.45 248.55,-43.45 253.45,-43.45"/>
</g>
</g>
</svg>
