<?xml version="1.0" encoding="UTF-8" standalone="no"?>
<!DOCTYPE svg PUBLIC "-//W3C//DTD SVG 1.1//EN"
 "http://www.w3.org/Graphics/SVG/1.1/DTD/svg11.dtd">
<!-- Generated by graphviz version 2.43.0 (0)
 -->
<!-- Title: G Pages: 1 -->
<svg width="3239pt" height="1351pt"
 viewBox="0.00 0.00 1166.20 486.20" xmlns="http://www.w3.org/2000/svg" xmlns:xlink="http://www.w3.org/1999/xlink">
<g id="graph0" class="graph" transform="scale(2.78 2.78) rotate(0) translate(21.6 464.6)">
<title>G</title>
<polygon fill="white" stroke="transparent" points="-21.6,21.6 -21.6,-464.6 1144.6,-464.6 1144.6,21.6 -21.6,21.6"/>
<g id="clust1" class="cluster">
<title>cluster_v</title>
<path fill="#e8f1fb" stroke="#8fb3d9" d="M20,-212C20,-212 658,-212 658,-212 664,-212 670,-218 670,-224 670,-224 670,-423 670,-423 670,-429 664,-435 658,-435 658,-435 20,-435 20,-435 14,-435 8,-429 8,-423 8,-423 8,-224 8,-224 8,-218 14,-212 20,-212"/>
<text text-anchor="middle" x="339" y="-420.6" font-family="Helvetica,sans-Serif" font-size="13.00">Vendor signing</text>
</g>
<g id="clust2" class="cluster">
<title>cluster_c</title>
<path fill="#e8f6ee" stroke="#94c9a9" d="M542,-8C542,-8 1103,-8 1103,-8 1109,-8 1115,-14 1115,-20 1115,-20 1115,-192 1115,-192 1115,-198 1109,-204 1103,-204 1103,-204 542,-204 542,-204 536,-204 530,-198 530,-192 530,-192 530,-20 530,-20 530,-14 536,-8 542,-8"/>
<text text-anchor="middle" x="822.5" y="-189.6" font-family="Helvetica,sans-Serif" font-size="13.00">Customer verification</text>
</g>
<!-- art -->
<g id="node1" class="node">
<title>art</title>
<path fill="#ffffff" stroke="#51606f" stroke-width="1.2" d="M126.5,-256C126.5,-256 43.5,-256 43.5,-256 37.5,-256 31.5,-250 31.5,-244 31.5,-244 31.5,-232 31.5,-232 31.5,-226 37.5,-220 43.5,-220 43.5,-220 126.5,-220 126.5,-220 132.5,-220 138.5,-226 138.5,-232 138.5,-232 138.5,-244 138.5,-244 138.5,-250 132.5,-256 126.5,-256"/>
<text text-anchor="middle" x="85" y="-234.9" font-family="Helvetica,sans-Serif" font-size="12.00">Artifact bytes</text>
</g>
<!-- h -->
<g id="node2" class="node">
<title>h</title>
<path fill="#ffffff" stroke="#51606f" stroke-width="1.2" d="M265.5,-256C265.5,-256 211.5,-256 211.5,-256 205.5,-256 199.5,-250 199.5,-244 199.5,-244 199.5,-232 199.5,-232 199.5,-226 205.5,-220 211.5,-220 211.5,-220 265.5,-220 265.5,-220 271.5,-220 277.5,-226 277.5,-232 277.5,-232 277.5,-244 277.5,-244 277.5,-250 271.5,-256 265.5,-256"/>
<text text-anchor="middle" x="238.5" y="-234.9" font-family="Helvetica,sans-Serif" font-size="12.00">SHA&#45;256</text>
</g>
<!-- art&#45;&gt;h -->
<g id="edge1" class="edge">
<title>art&#45;&gt;h</title>
<path fill="none" stroke="#51606f" stroke-width="1.2" d="M138.56,-238C156.06,-238 175.39,-238 192.28,-238"/>
<polygon fill="#51606f" stroke="#51606f" stroke-width="1.2" points="192.36,-240.45 199.36,-238 192.36,-235.55 192.36,-240.45"/>
</g>
<!-- sa -->
<g id="node4" class="node">
<title>sa</title>
<path fill="#ffffff" stroke="#51606f" stroke-width="1.2" d="M280,-378C280,-378 197,-378 197,-378 191,-378 185,-372 185,-366 185,-366 185,-354 185,-354 185,-348 191,-342 197,-342 197,-342 280,-342 280,-342 286,-342 292,-348 292,-354 292,-354 292,-366 292,-366 292,-372 286,-378 280,-378"/>
<text text-anchor="middle" x="238.5" y="-363.4" font-family="Helvetica,sans-Serif" font-size="12.00">Ed25519 sign</text>
<text text-anchor="middle" x="238.5" y="-350.4" font-family="Helvetica,sans-Serif" font-size="12.00">(ctx: artifact)</text>
</g>
<!-- art&#45;&gt;sa -->
<g id="edge3" class="edge">
<title>art&#45;&gt;sa</title>
<path fill="none" stroke="#51606f" stroke-width="1.2" d="M103.16,-256.27C122.09,-275.86 154,-307.21 185,-330 188.81,-332.8 192.9,-335.54 197.06,-338.16"/>
<polygon fill="#51606f" stroke="#51606f" stroke-width="1.2" points="195.92,-340.34 203.17,-341.9 198.48,-336.16 195.92,-340.34"/>
</g>
<!-- v2 -->
<g id="node10" class="node">
<title>v2</title>
<path fill="#ffffff" stroke="#51606f" stroke-width="1.2" d="M922,-52C922,-52 796,-52 796,-52 790,-52 784,-46 784,-40 784,-40 784,-28 784,-28 784,-22 790,-16 796,-16 796,-16 922,-16 922,-16 928,-16 934,-22 934,-28 934,-28 934,-40 934,-40 934,-46 928,-52 922,-52"/>
<text text-anchor="middle" x="859" y="-37.4" font-family="Helvetica,sans-Serif" font-size="12.00">Recompute SHA&#45;256</text>
<text text-anchor="middle" x="859" y="-24.4" font-family="Helvetica,sans-Serif" font-size="12.00">= manifest.sha256 ?</text>
</g>
<!-- art&#45;&gt;v2 -->
<g id="edge15" class="edge">
<title>art&#45;&gt;v2</title>
<path fill="none" stroke="#51606f" stroke-width="1.2" d="M90.67,-219.65C104.26,-171.11 148.54,-43 237.5,-43 237.5,-43 237.5,-43 606,-43 663.06,-43 727.34,-40.67 776.7,-38.38"/>
<polygon fill="#51606f" stroke="#51606f" stroke-width="1.2" points="776.99,-40.82 783.87,-38.04 776.76,-35.92 776.99,-40.82"/>
<text text-anchor="middle" x="414.5" y="-46" font-family="Helvetica,sans-Serif" font-size="10.00"> downloaded bytes</text>
</g>
<!-- m -->
<g id="node5" class="node">
<title>m</title>
<path fill="#ffffff" stroke="#51606f" stroke-width="1.2" d="M494,-336.5C494,-336.5 335,-336.5 335,-336.5 329,-336.5 323,-330.5 323,-324.5 323,-324.5 323,-273.5 323,-273.5 323,-267.5 329,-261.5 335,-261.5 335,-261.5 494,-261.5 494,-261.5 500,-261.5 506,-267.5 506,-273.5 506,-273.5 506,-324.5 506,-324.5 506,-330.5 500,-336.5 494,-336.5"/>
<text text-anchor="middle" x="414.5" y="-321.9" font-family="Helvetica,sans-Serif" font-size="12.00">Manifest</text>
<text text-anchor="middle" x="414.5" y="-308.9" font-family="Helvetica,sans-Serif" font-size="12.00">{artifact, version, sha256,</text>
<text text-anchor="middle" x="414.5" y="-295.9" font-family="Helvetica,sans-Serif" font-size="12.00">key_id, timestamp,</text>
<text text-anchor="middle" x="414.5" y="-282.9" font-family="Helvetica,sans-Serif" font-size="12.00">artifact_signature,</text>
<text text-anchor="middle" x="414.5" y="-269.9" font-family="Helvetica,sans-Serif" font-size="12.00">provenance_sha256}</text>
</g>
<!-- h&#45;&gt;m -->
<g id="edge2" class="edge">
<title>h&#45;&gt;m</title>
<path fill="none" stroke="#51606f" stroke-width="1.2" d="M277.69,-251.39C289.29,-255.46 302.61,-260.13 316.27,-264.91"/>
<polygon fill="#51606f" stroke="#51606f" stroke-width="1.2" points="315.58,-267.27 323,-267.27 317.2,-262.64 315.58,-267.27"/>
</g>
<!-- prov -->
<g id="node3" class="node">
<title>prov</title>
<path fill="#ffffff" stroke="#51606f" stroke-width="1.2" d="M274.5,-317C274.5,-317 202.5,-317 202.5,-317 196.5,-317 190.5,-311 190.5,-305 190.5,-305 190.5,-293 190.5,-293 190.5,-287 196.5,-281 202.5,-281 202.5,-281 274.5,-281 274.5,-281 280.5,-281 286.5,-287 286.5,-293 286.5,-293 286.5,-305 286.5,-305 286.5,-311 280.5,-317 274.5,-317"/>
<text text-anchor="middle" x="238.5" y="-295.9" font-family="Helvetica,sans-Serif" font-size="12.00">Provenance</text>
</g>
<!-- prov&#45;&gt;m -->
<g id="edge5" class="edge">
<title>prov&#45;&gt;m</title>
<path fill="none" stroke="#51606f" stroke-width="1.2" d="M286.59,-299C295.75,-299 305.66,-299 315.77,-299"/>
<polygon fill="#51606f" stroke="#51606f" stroke-width="1.2" points="315.79,-301.45 322.79,-299 315.79,-296.55 315.79,-301.45"/>
</g>
<!-- sa&#45;&gt;m -->
<g id="edge4" class="edge">
<title>sa&#45;&gt;m</title>
<path fill="none" stroke="#51606f" stroke-width="1.2" d="M291.23,-341.86C299.14,-339.09 307.51,-336.16 316.02,-333.17"/>
<polygon fill="#51606f" stroke="#51606f" stroke-width="1.2" points="317.07,-335.4 322.86,-330.77 315.45,-330.78 317.07,-335.4"/>
</g>
<!-- sm -->
<g id="node6" class="node">
<title>sm</title>
<path fill="#ffffff" stroke="#51606f" stroke-width="1.2" d="M650,-317C650,-317 560,-317 560,-317 554,-317 548,-311 548,-305 548,-305 548,-293 548,-293 548,-287 554,-281 560,-281 560,-281 650,-281 650,-281 656,-281 662,-287 662,-293 662,-293 662,-305 662,-305 662,-311 656,-317 650,-317"/>
<text text-anchor="middle" x="605" y="-302.4" font-family="Helvetica,sans-Serif" font-size="12.00">Ed25519 sign</text>
<text text-anchor="middle" x="605" y="-289.4" font-family="Helvetica,sans-Serif" font-size="12.00">(ctx: manifest)</text>
</g>
<!-- m&#45;&gt;sm -->
<g id="edge6" class="edge">
<title>m&#45;&gt;sm</title>
<path fill="none" stroke="#51606f" stroke-width="1.2" d="M506.16,-299C517.84,-299 529.6,-299 540.71,-299"/>
<polygon fill="#51606f" stroke="#51606f" stroke-width="1.2" points="540.91,-301.45 547.91,-299 540.91,-296.55 540.91,-301.45"/>
</g>
<!-- v1 -->
<g id="node9" class="node">
<title>v1</title>
<path fill="#ffffff" stroke="#51606f" stroke-width="1.2" d="M905.5,-174C905.5,-174 812.5,-174 812.5,-174 806.5,-174 800.5,-168 800.5,-162 800.5,-162 800.5,-150 800.5,-150 800.5,-144 806.5,-138 812.5,-138 812.5,-138 905.5,-138 905.5,-138 911.5,-138 917.5,-144 917.5,-150 917.5,-150 917.5,-162 917.5,-162 917.5,-168 911.5,-174 905.5,-174"/>
<text text-anchor="middle" x="859" y="-159.4" font-family="Helvetica,sans-Serif" font-size="12.00">Verify manifest</text>
<text text-anchor="middle" x="859" y="-146.4" font-family="Helvetica,sans-Serif" font-size="12.00">signature</text>
</g>
<!-- sm&#45;&gt;v1 -->
<g id="edge14" class="edge">
<title>sm&#45;&gt;v1</title>
<path fill="none" stroke="#51606f" stroke-width="1.2" d="M637.92,-280.89C684.27,-254.58 770.11,-205.87 819.78,-177.69"/>
<polygon fill="#51606f" stroke="#51606f" stroke-width="1.2" points="821.07,-179.77 825.95,-174.19 818.65,-175.51 821.07,-179.77"/>
<text text-anchor="middle" x="728" y="-255" font-family="Helvetica,sans-Serif" font-size="10.00"> signed manifest</text>
</g>
<!-- sk -->
<g id="node7" class="node">
<title>sk</title>
<path fill="#d6e6f7" stroke="#51606f" stroke-width="1.2" d="M154,-390.05C154,-392.51 123.07,-394.5 85,-394.5 46.93,-394.5 16,-392.51 16,-390.05 16,-390.05 16,-349.95 16,-349.95 16,-347.49 46.93,-345.5 85,-345.5 123.07,-345.5 154,-347.49 154,-349.95 154,-349.95 154,-390.05 154,-390.05"/>
<path fill="none" stroke="#51606f" stroke-width="1.2" d="M154,-390.05C154,-387.59 123.07,-385.59 85,-385.59 46.93,-385.59 16,-387.59 16,-390.05"/>
<text text-anchor="middle" x="85" y="-373.4" font-family="Helvetica,sans-Serif" font-size="12.00">Private key</text>
<text text-anchor="middle" x="85" y="-360.4" font-family="Helvetica,sans-Serif" font-size="12.00">(never distributed)</text>
</g>
<!-- sk&#45;&gt;sa -->
<g id="edge7" class="edge">
<title>sk&#45;&gt;sa</title>
<path fill="none" stroke="#51606f" stroke-width="1.2" stroke-dasharray="5,2" d="M154.22,-365.5C162.03,-364.98 169.96,-364.46 177.65,-363.95"/>
<polygon fill="#51606f" stroke="#51606f" stroke-width="1.2" points="177.82,-366.39 184.65,-363.49 177.5,-361.51 177.82,-366.39"/>
</g>
<!-- sk&#45;&gt;sm -->
<g id="edge8" class="edge">
<title>sk&#45;&gt;sm</title>
<path fill="none" stroke="#51606f" stroke-width="1.2" stroke-dasharray="5,2" d="M154.14,-386.4C164.42,-388.31 174.95,-389.95 185,-391 328.1,-406.01 370.01,-396 506,-349 527.22,-341.66 549.62,-330.52 567.64,-320.62"/>
<polygon fill="#51606f" stroke="#51606f" stroke-width="1.2" points="569.15,-322.58 574.07,-317.03 566.76,-318.3 569.15,-322.58"/>
</g>
<!-- pk -->
<g id="node8" class="node">
<title>pk</title>
<path fill="#ffffff" stroke="#51606f" stroke-width="1.2" d="M672,-147.72C672,-151.12 641.97,-153.88 605,-153.88 568.03,-153.88 538,-151.12 538,-147.72 538,-147.72 538,-92.28 538,-92.28 538,-88.88 568.03,-86.12 605,-86.12 641.97,-86.12 672,-88.88 672,-92.28 672,-92.28 672,-147.72 672,-147.72"/>
<path fill="none" stroke="#51606f" stroke-width="1.2" d="M672,-147.72C672,-144.32 641.97,-141.56 605,-141.56 568.03,-141.56 538,-144.32 538,-147.72"/>
<text text-anchor="middle" x="605" y="-129.9" font-family="Helvetica,sans-Serif" font-size="12.00">Trusted public key</text>
<text text-anchor="middle" x="605" y="-116.9" font-family="Helvetica,sans-Serif" font-size="12.00">(from root&#45;signed</text>
<text text-anchor="middle" x="605" y="-103.9" font-family="Helvetica,sans-Serif" font-size="12.00">trust policy)</text>
</g>
<!-- pk&#45;&gt;v1 -->
<g id="edge9" class="edge">
<title>pk&#45;&gt;v1</title>
<path fill="none" stroke="#51606f" stroke-width="1.2" d="M672.04,-125.28C701.77,-128.07 737.25,-131.97 769,-137 776.77,-138.23 784.88,-139.7 792.9,-141.27"/>
<polygon fill="#51606f" stroke="#51606f" stroke-width="1.2" points="792.89,-143.77 800.24,-142.74 793.85,-138.96 792.89,-143.77"/>
</g>
<!-- v3 -->
<g id="node11" class="node">
<title>v3</title>
<path fill="#ffffff" stroke="#51606f" stroke-width="1.2" d="M901,-113C901,-113 817,-113 817,-113 811,-113 805,-107 805,-101 805,-101 805,-89 805,-89 805,-83 811,-77 817,-77 817,-77 901,-77 901,-77 907,-77 913,-83 913,-89 913,-89 913,-101 913,-101 913,-107 907,-113 901,-113"/>
<text text-anchor="middle" x="859" y="-98.4" font-family="Helvetica,sans-Serif" font-size="12.00">Verify artifact</text>
<text text-anchor="middle" x="859" y="-85.4" font-family="Helvetica,sans-Serif" font-size="12.00">signature</text>
</g>
<!-- pk&#45;&gt;v3 -->
<g id="edge10" class="edge">
<title>pk&#45;&gt;v3</title>
<path fill="none" stroke="#51606f" stroke-width="1.2" d="M672.21,-113.43C711.04,-109.58 759.72,-104.75 797.52,-101"/>
<polygon fill="#51606f" stroke="#51606f" stroke-width="1.2" points="798.2,-103.39 804.92,-100.27 797.72,-98.52 798.2,-103.39"/>
</g>
<!-- ok -->
<g id="node12" class="node">
<title>ok</title>
<path fill="#d5f0de" stroke="#1a7f4b" stroke-width="1.2" d="M1095,-113C1095,-113 977,-113 977,-113 971,-113 965,-107 965,-101 965,-101 965,-89 965,-89 965,-83 971,-77 977,-77 977,-77 1095,-77 1095,-77 1101,-77 1107,-83 1107,-89 1107,-89 1107,-101 1107,-101 1107,-107 1101,-113 1095,-113"/>
<text text-anchor="middle" x="1036" y="-98.4" font-family="Helvetica,sans-Serif" font-size="12.00" fill="#1a7f4b">Integrity AND</text>
<text text-anchor="middle" x="1036" y="-85.4" font-family="Helvetica,sans-Serif" font-size="12.00" fill="#1a7f4b">authenticity proven</text>
</g>
<!-- v1&#45;&gt;ok -->
<g id="edge11" class="edge">
<title>v1&#45;&gt;ok</title>
<path fill="none" stroke="#51606f" stroke-width="1.2" d="M912.03,-137.86C932.31,-130.8 955.64,-122.66 976.49,-115.39"/>
<polygon fill="#51606f" stroke="#51606f" stroke-width="1.2" points="977.37,-117.68 983.17,-113.07 975.75,-113.06 977.37,-117.68"/>
</g>
<!-- v2&#45;&gt;ok -->
<g id="edge12" class="edge">
<title>v2&#45;&gt;ok</title>
<path fill="none" stroke="#51606f" stroke-width="1.2" d="M912.03,-52.14C932.31,-59.2 955.64,-67.34 976.49,-74.61"/>
<polygon fill="#51606f" stroke="#51606f" stroke-width="1.2" points="975.75,-76.94 983.17,-76.93 977.37,-72.32 975.75,-76.94"/>
</g>
<!-- v3&#45;&gt;ok -->
<g id="edge13" class="edge">
<title>v3&#45;&gt;ok</title>
<path fill="none" stroke="#51606f" stroke-width="1.2" d="M913.46,-95C927.36,-95 942.63,-95 957.51,-95"/>
<polygon fill="#51606f" stroke="#51606f" stroke-width="1.2" points="957.77,-97.45 964.77,-95 957.77,-92.55 957.77,-97.45"/>
</g>
</g>
</svg>
